<svg xmlns="http://www.w3.org/2000/svg" width="256" height="356" viewBox="0 0 256 356" role="img" aria-label="お菓子の暖炉騎士 illustration">
  <defs>
    <linearGradient id="bg" x1="0" y1="0" x2="1" y2="1">
      <stop offset="0" stop-color="#62d7ff"/>
      <stop offset=".52" stop-color="#0b1728"/>
      <stop offset="1" stop-color="#07090d"/>
    </linearGradient>
    <radialGradient id="halo" cx=".50" cy=".34" r=".60">
      <stop offset="0" stop-color="#d8f7ff" stop-opacity=".78"/>
      <stop offset=".42" stop-color="#62d7ff" stop-opacity=".24"/>
      <stop offset="1" stop-color="#0b1728" stop-opacity="0"/>
    </radialGradient>
    <linearGradient id="figure" x1="0" y1="0" x2="1" y2="1">
      <stop offset="0" stop-color="#d8f7ff"/>
      <stop offset=".62" stop-color="#62d7ff"/>
      <stop offset="1" stop-color="#10131a"/>
    </linearGradient>
    <radialGradient id="core" cx=".38" cy=".22" r=".7">
      <stop offset="0" stop-color="#ffffff"/>
      <stop offset=".32" stop-color="#d8f7ff"/>
      <stop offset="1" stop-color="#62d7ff"/>
    </radialGradient>
    <linearGradient id="paper" x1="0" y1="0" x2="1" y2="1">
      <stop offset="0" stop-color="#ffffff" stop-opacity=".92"/>
      <stop offset="1" stop-color="#d8f7ff" stop-opacity=".45"/>
    </linearGradient>
    <filter id="ft_fire_ginger_knight_glow" x="-30%" y="-30%" width="160%" height="160%">
      <feGaussianBlur stdDeviation="7" result="blur"/>
      <feMerge><feMergeNode in="blur"/><feMergeNode in="SourceGraphic"/></feMerge>
    </filter>
  </defs>
  <rect width="256" height="356" rx="26" fill="#080b12"/>
  <rect x="7" y="7" width="242" height="342" rx="22" fill="url(#bg)"/>
  <rect x="10" y="10" width="236" height="336" rx="19" fill="url(#halo)"/>
  <path d="M-20 92 C64 44 132 48 276 12" stroke="white" stroke-opacity=".10" stroke-width="42"/>
  <path d="M-18 286 C72 222 178 282 274 216" stroke="#d8f7ff" stroke-opacity=".16" stroke-width="38"/>
  <g transform="rotate(145 128 176)" opacity=".36">
    <ellipse cx="128" cy="176" rx="83" ry="118" fill="none" stroke="white" stroke-opacity=".15" stroke-width="2"/>
    <ellipse cx="128" cy="176" rx="54" ry="104" fill="none" stroke="#d8f7ff" stroke-opacity=".26" stroke-width="4"/>
  </g>
  <path d="M20 252 L236 84" stroke="white" stroke-opacity=".12" stroke-width="2"/>
  <path d="M44 306 L190 72" stroke="#d8f7ff" stroke-opacity=".18" stroke-width="7" transform="rotate(-24 128 178)"/>
  <g opacity=".82"><path d="M202 118l17 13-17 13-17-13Z" fill="url(#core)" opacity=".46"/><rect x="172" y="88" width="34" height="34" rx="10" fill="url(#paper)" opacity=".35"/></g>
  <g filter="url(#ft_fire_ginger_knight_glow)">
    <circle cx="128" cy="116" r="27" fill="url(#core)" opacity=".95"/>
    <path d="M92 148q36-30 72 0l24 102q-54 34-120 0Z" fill="url(#figure)" opacity=".92"/>
    <path d="M72 229h112v32H72z" fill="url(#paper)" opacity=".55"/><circle cx="86" cy="229" r="12" fill="url(#core)"/><circle cx="170" cy="229" r="12" fill="url(#core)"/>
  <path d="M86 92h84l14 30H72Z" fill="url(#paper)" opacity=".58"/></g>
  <circle cx="82" cy="202" r="1.9" fill="white" opacity="0.40"/><circle cx="23" cy="76" r="2.8" fill="white" opacity="0.37"/><circle cx="156" cy="58" r="1.3" fill="white" opacity="0.29"/><circle cx="19" cy="140" r="2.5" fill="white" opacity="0.44"/><circle cx="81" cy="75" r="3.5" fill="white" opacity="0.40"/><circle cx="199" cy="170" r="3.4" fill="white" opacity="0.29"/><circle cx="63" cy="199" r="1.4" fill="white" opacity="0.44"/><circle cx="53" cy="207" r="3.3" fill="white" opacity="0.37"/><circle cx="207" cy="85" r="3.5" fill="white" opacity="0.22"/>
  <rect x="18" y="18" width="42" height="42" rx="14" fill="rgba(0,0,0,.38)" stroke="white" stroke-opacity=".22"/>
  <text x="39" y="46" text-anchor="middle" font-family="system-ui, sans-serif" font-size="22" font-weight="900" fill="white">3</text>
  <rect x="190" y="18" width="48" height="30" rx="15" fill="rgba(0,0,0,.34)" stroke="white" stroke-opacity=".22"/>
  <text x="214" y="38" text-anchor="middle" font-family="system-ui, sans-serif" font-size="14" font-weight="900" fill="white">R</text>
  <rect x="21" y="264" width="42" height="24" rx="12" fill="rgba(0,0,0,.32)" stroke="white" stroke-opacity=".14"/>
  <text x="42" y="281" text-anchor="middle" font-family="system-ui, sans-serif" font-size="15" font-weight="900" fill="white" opacity=".66">お</text>
  <rect x="18" y="292" width="220" height="44" rx="14" fill="rgba(0,0,0,.44)" stroke="white" stroke-opacity=".16"/>
  <text x="128" y="319" text-anchor="middle" font-family="system-ui, sans-serif" font-size="18" font-weight="900" fill="white">お菓子の暖炉騎士</text>
</svg>