<svg xmlns="http://www.w3.org/2000/svg" width="256" height="356" viewBox="0 0 256 356" role="img" aria-label="灰かぶりの火種姫 illustration">
  <defs>
    <linearGradient id="bg" x1="0" y1="0" x2="1" y2="1">
      <stop offset="0" stop-color="#ff9a5f"/>
      <stop offset=".52" stop-color="#25110a"/>
      <stop offset="1" stop-color="#07090d"/>
    </linearGradient>
    <radialGradient id="halo" cx=".50" cy=".34" r=".60">
      <stop offset="0" stop-color="#e5ff9c" stop-opacity=".78"/>
      <stop offset=".42" stop-color="#ff9a5f" stop-opacity=".24"/>
      <stop offset="1" stop-color="#25110a" stop-opacity="0"/>
    </radialGradient>
    <linearGradient id="figure" x1="0" y1="0" x2="1" y2="1">
      <stop offset="0" stop-color="#e5ff9c"/>
      <stop offset=".62" stop-color="#ff9a5f"/>
      <stop offset="1" stop-color="#10131a"/>
    </linearGradient>
    <radialGradient id="core" cx=".38" cy=".22" r=".7">
      <stop offset="0" stop-color="#ffffff"/>
      <stop offset=".32" stop-color="#e5ff9c"/>
      <stop offset="1" stop-color="#ff9a5f"/>
    </radialGradient>
    <linearGradient id="paper" x1="0" y1="0" x2="1" y2="1">
      <stop offset="0" stop-color="#ffffff" stop-opacity=".92"/>
      <stop offset="1" stop-color="#e5ff9c" stop-opacity=".45"/>
    </linearGradient>
    <filter id="ft_fire_cinder_heir_glow" x="-30%" y="-30%" width="160%" height="160%">
      <feGaussianBlur stdDeviation="7" result="blur"/>
      <feMerge><feMergeNode in="blur"/><feMergeNode in="SourceGraphic"/></feMerge>
    </filter>
  </defs>
  <rect width="256" height="356" rx="26" fill="#080b12"/>
  <rect x="7" y="7" width="242" height="342" rx="22" fill="url(#bg)"/>
  <rect x="10" y="10" width="236" height="336" rx="19" fill="url(#halo)"/>
  <path d="M-20 92 C64 44 132 48 276 12" stroke="white" stroke-opacity=".10" stroke-width="42"/>
  <path d="M-18 286 C72 222 178 282 274 216" stroke="#e5ff9c" stroke-opacity=".16" stroke-width="38"/>
  <g transform="rotate(53 128 176)" opacity=".36">
    <ellipse cx="128" cy="176" rx="83" ry="118" fill="none" stroke="white" stroke-opacity=".15" stroke-width="2"/>
    <ellipse cx="128" cy="176" rx="54" ry="104" fill="none" stroke="#e5ff9c" stroke-opacity=".26" stroke-width="4"/>
  </g>
  <path d="M20 252 L236 84" stroke="white" stroke-opacity=".12" stroke-width="2"/>
  <path d="M44 306 L195 72" stroke="#e5ff9c" stroke-opacity=".18" stroke-width="7" transform="rotate(8 128 178)"/>
  <g opacity=".82"><path d="M44 98h50M162 238h46" stroke="white" stroke-opacity=".20" stroke-width="7" stroke-linecap="round"/><rect x="170" y="88" width="34" height="34" rx="10" fill="url(#paper)" opacity=".35"/></g>
  <g filter="url(#ft_fire_cinder_heir_glow)">
    <circle cx="131" cy="113" r="27" fill="url(#core)" opacity=".95"/>
    <path d="M95.5 148q35.5-30 71 0l24 102q-54 34-120 0Z" fill="url(#figure)" opacity=".92"/>
    <path d="M86 205q45 25 90 0" fill="none" stroke="white" stroke-opacity=".22" stroke-width="8" stroke-linecap="round"/><circle cx="95" cy="111" r="16" fill="url(#paper)" opacity=".34"/>
  </g>
  <circle cx="105" cy="110" r="2.3" fill="white" opacity="0.39"/><circle cx="80" cy="133" r="1.3" fill="white" opacity="0.27"/><circle cx="40" cy="247" r="2.4" fill="white" opacity="0.15"/><circle cx="204" cy="56" r="3.3" fill="white" opacity="0.27"/><circle cx="128" cy="76" r="2.1" fill="white" opacity="0.19"/><circle cx="98" cy="202" r="2.0" fill="white" opacity="0.36"/><circle cx="41" cy="137" r="1.7" fill="white" opacity="0.30"/><circle cx="36" cy="233" r="2.2" fill="white" opacity="0.32"/><circle cx="214" cy="140" r="2.2" fill="white" opacity="0.24"/>
  <rect x="18" y="18" width="42" height="42" rx="14" fill="rgba(0,0,0,.38)" stroke="white" stroke-opacity=".22"/>
  <text x="39" y="46" text-anchor="middle" font-family="system-ui, sans-serif" font-size="22" font-weight="900" fill="white">5</text>
  <rect x="190" y="18" width="48" height="30" rx="15" fill="rgba(0,0,0,.34)" stroke="white" stroke-opacity=".22"/>
  <text x="214" y="38" text-anchor="middle" font-family="system-ui, sans-serif" font-size="14" font-weight="900" fill="white">SR</text>
  <rect x="21" y="264" width="42" height="24" rx="12" fill="rgba(0,0,0,.32)" stroke="white" stroke-opacity=".14"/>
  <text x="42" y="281" text-anchor="middle" font-family="system-ui, sans-serif" font-size="15" font-weight="900" fill="white" opacity=".66">灰</text>
  <rect x="18" y="292" width="220" height="44" rx="14" fill="rgba(0,0,0,.44)" stroke="white" stroke-opacity=".16"/>
  <text x="128" y="319" text-anchor="middle" font-family="system-ui, sans-serif" font-size="18" font-weight="900" fill="white">灰かぶりの火種姫</text>
</svg>