<svg xmlns="http://www.w3.org/2000/svg" width="256" height="356" viewBox="0 0 256 356" role="img" aria-label="ブレーメン幻奏隊 illustration">
  <defs>
    <linearGradient id="bg" x1="0" y1="0" x2="1" y2="1">
      <stop offset="0" stop-color="#fff2a8"/>
      <stop offset=".52" stop-color="#201b08"/>
      <stop offset="1" stop-color="#07090d"/>
    </linearGradient>
    <radialGradient id="halo" cx=".50" cy=".34" r=".60">
      <stop offset="0" stop-color="#91a4b8" stop-opacity=".78"/>
      <stop offset=".42" stop-color="#fff2a8" stop-opacity=".24"/>
      <stop offset="1" stop-color="#201b08" stop-opacity="0"/>
    </radialGradient>
    <linearGradient id="figure" x1="0" y1="0" x2="1" y2="1">
      <stop offset="0" stop-color="#91a4b8"/>
      <stop offset=".62" stop-color="#fff2a8"/>
      <stop offset="1" stop-color="#10131a"/>
    </linearGradient>
    <radialGradient id="core" cx=".38" cy=".22" r=".7">
      <stop offset="0" stop-color="#ffffff"/>
      <stop offset=".32" stop-color="#91a4b8"/>
      <stop offset="1" stop-color="#fff2a8"/>
    </radialGradient>
    <linearGradient id="paper" x1="0" y1="0" x2="1" y2="1">
      <stop offset="0" stop-color="#ffffff" stop-opacity=".92"/>
      <stop offset="1" stop-color="#91a4b8" stop-opacity=".45"/>
    </linearGradient>
    <filter id="ft_illusion_bremen_glow" x="-30%" y="-30%" width="160%" height="160%">
      <feGaussianBlur stdDeviation="7" result="blur"/>
      <feMerge><feMergeNode in="blur"/><feMergeNode in="SourceGraphic"/></feMerge>
    </filter>
  </defs>
  <rect width="256" height="356" rx="26" fill="#080b12"/>
  <rect x="7" y="7" width="242" height="342" rx="22" fill="url(#bg)"/>
  <rect x="10" y="10" width="236" height="336" rx="19" fill="url(#halo)"/>
  <path d="M-20 92 C64 44 132 48 276 12" stroke="white" stroke-opacity=".10" stroke-width="42"/>
  <path d="M-18 286 C72 222 178 282 274 216" stroke="#91a4b8" stroke-opacity=".16" stroke-width="38"/>
  <g transform="rotate(163 128 176)" opacity=".36">
    <ellipse cx="128" cy="176" rx="83" ry="118" fill="none" stroke="white" stroke-opacity=".15" stroke-width="2"/>
    <ellipse cx="128" cy="176" rx="54" ry="104" fill="none" stroke="#91a4b8" stroke-opacity=".26" stroke-width="4"/>
  </g>
  <path d="M20 252 L236 84" stroke="white" stroke-opacity=".12" stroke-width="2"/>
  <path d="M72 306 L193 72" stroke="#91a4b8" stroke-opacity=".18" stroke-width="7" transform="rotate(-24 128 178)"/>
  <g opacity=".82"><path d="M202 118l17 13-17 13-17-13Z" fill="url(#core)" opacity=".46"/><path d="M48 250c34-22 68-22 102 0" fill="none" stroke="white" stroke-opacity=".18" stroke-width="7" stroke-linecap="round"/></g>
  <g filter="url(#ft_illusion_bremen_glow)">
    <circle cx="120" cy="113" r="27" fill="url(#core)" opacity=".95"/>
    <path d="M79.5 148q40.5-30 81 0l24 102q-54 34-120 0Z" fill="url(#figure)" opacity=".92"/>
    <path d="M75 205q45 25 90 0" fill="none" stroke="white" stroke-opacity=".22" stroke-width="8" stroke-linecap="round"/><circle cx="84" cy="111" r="13" fill="url(#paper)" opacity=".34"/>
  </g>
  <circle cx="141" cy="159" r="1.8" fill="white" opacity="0.18"/><circle cx="95" cy="171" r="2.7" fill="white" opacity="0.33"/><circle cx="121" cy="158" r="2.4" fill="white" opacity="0.33"/><circle cx="55" cy="112" r="1.6" fill="white" opacity="0.34"/><circle cx="165" cy="93" r="1.7" fill="white" opacity="0.29"/><circle cx="114" cy="195" r="2.8" fill="white" opacity="0.14"/><circle cx="98" cy="40" r="2.8" fill="white" opacity="0.43"/><circle cx="216" cy="99" r="2.9" fill="white" opacity="0.24"/><circle cx="94" cy="28" r="2.0" fill="white" opacity="0.42"/>
  <rect x="18" y="18" width="42" height="42" rx="14" fill="rgba(0,0,0,.38)" stroke="white" stroke-opacity=".22"/>
  <text x="39" y="46" text-anchor="middle" font-family="system-ui, sans-serif" font-size="22" font-weight="900" fill="white">5</text>
  <rect x="190" y="18" width="48" height="30" rx="15" fill="rgba(0,0,0,.34)" stroke="white" stroke-opacity=".22"/>
  <text x="214" y="38" text-anchor="middle" font-family="system-ui, sans-serif" font-size="14" font-weight="900" fill="white">SR</text>
  <rect x="21" y="264" width="42" height="24" rx="12" fill="rgba(0,0,0,.32)" stroke="white" stroke-opacity=".14"/>
  <text x="42" y="281" text-anchor="middle" font-family="system-ui, sans-serif" font-size="15" font-weight="900" fill="white" opacity=".66">ブ</text>
  <rect x="18" y="292" width="220" height="44" rx="14" fill="rgba(0,0,0,.44)" stroke="white" stroke-opacity=".16"/>
  <text x="128" y="319" text-anchor="middle" font-family="system-ui, sans-serif" font-size="18" font-weight="900" fill="white">ブレーメン幻奏隊</text>
</svg>