<svg xmlns="http://www.w3.org/2000/svg" width="256" height="356" viewBox="0 0 180 260" role="img" aria-label="Magnetite Knight illustration">
  <defs>
    <radialGradient id="paper" cx="42%" cy="24%" r="78%"><stop offset="0" stop-color="#fffef8"/><stop offset=".56" stop-color="#eee9dc"/><stop offset="1" stop-color="#cfc7b8"/></radialGradient>
    <radialGradient id="glow" cx="50%" cy="40%" r="62%"><stop offset="0" stop-color="#f1f5f8" stop-opacity=".75"/><stop offset=".42" stop-color="#b8c4d4" stop-opacity=".25"/><stop offset="1" stop-color="#15191f" stop-opacity="0"/></radialGradient>
    <filter id="rough"><feTurbulence baseFrequency="0.9" numOctaves="2" seed="343" type="fractalNoise"/><feDisplacementMap in="SourceGraphic" scale="0.55"/></filter>
  </defs>
  <rect width="180" height="260" rx="18" fill="#111319"/>
  <rect x="6" y="6" width="168" height="248" rx="15" fill="url(#paper)"/>
  <rect x="6" y="6" width="168" height="248" rx="15" fill="url(#glow)" opacity=".42"/>
  <path d="M8 214 C52 175 87 230 174 170" stroke="#b8c4d4" stroke-width="18" stroke-opacity=".12" fill="none"/>
  <path d="M-12 60 C48 34 118 30 196 10" stroke="#fff" stroke-width="24" stroke-opacity=".20" fill="none"/>
  <g filter="url(#rough)"><path d="M17.0 40.8 L164.6 28.8" stroke="#1f2328" stroke-width="0.9" stroke-linecap="round" opacity="0.09" fill="none"/><path d="M18.3 50.7 L166.7 37.7" stroke="#1f2328" stroke-width="0.9" stroke-linecap="round" opacity="0.09" fill="none"/><path d="M18.1 59.9 L166.2 45.9" stroke="#1f2328" stroke-width="0.9" stroke-linecap="round" opacity="0.09" fill="none"/><path d="M16.6 68.7 L164.5 53.7" stroke="#1f2328" stroke-width="0.9" stroke-linecap="round" opacity="0.09" fill="none"/><path d="M16.3 77.8 L164.3 61.9" stroke="#1f2328" stroke-width="0.9" stroke-linecap="round" opacity="0.09" fill="none"/><path d="M15.5 86.1 L161.3 66.9" stroke="#1f2328" stroke-width="0.9" stroke-linecap="round" opacity="0.09" fill="none"/><path d="M20.7 94.2 L168.6 76.1" stroke="#1f2328" stroke-width="0.9" stroke-linecap="round" opacity="0.09" fill="none"/><path d="M21.6 104.9 L169.2 85.9" stroke="#1f2328" stroke-width="0.9" stroke-linecap="round" opacity="0.09" fill="none"/><path d="M17.2 113.2 L165.7 93.2" stroke="#1f2328" stroke-width="0.9" stroke-linecap="round" opacity="0.09" fill="none"/><path d="M21.3 120.9 L169.2 99.9" stroke="#1f2328" stroke-width="0.9" stroke-linecap="round" opacity="0.09" fill="none"/><path d="M18.7 128.0 L162.8 106.0" stroke="#1f2328" stroke-width="0.9" stroke-linecap="round" opacity="0.09" fill="none"/><path d="M16.2 137.9 L164.3 114.8" stroke="#1f2328" stroke-width="0.9" stroke-linecap="round" opacity="0.09" fill="none"/><path d="M16.7 147.5 L165.2 124.0" stroke="#1f2328" stroke-width="0.9" stroke-linecap="round" opacity="0.09" fill="none"/><path d="M19.5 158.8 L167.7 134.0" stroke="#1f2328" stroke-width="0.9" stroke-linecap="round" opacity="0.09" fill="none"/><path d="M16.3 164.5 L164.2 138.5" stroke="#1f2328" stroke-width="0.9" stroke-linecap="round" opacity="0.09" fill="none"/><path d="M21.5 176.6 L169.4 149.7" stroke="#1f2328" stroke-width="0.9" stroke-linecap="round" opacity="0.09" fill="none"/><path d="M19.3 185.0 L167.4 157.1" stroke="#1f2328" stroke-width="0.9" stroke-linecap="round" opacity="0.09" fill="none"/><path d="M19.5 194.8 L167.6 165.8" stroke="#1f2328" stroke-width="0.9" stroke-linecap="round" opacity="0.09" fill="none"/><path d="M21.9 202.1 L169.6 172.1" stroke="#1f2328" stroke-width="0.9" stroke-linecap="round" opacity="0.09" fill="none"/><path d="M14.2 209.1 L163.0 178.9" stroke="#1f2328" stroke-width="0.9" stroke-linecap="round" opacity="0.09" fill="none"/><circle cx="90" cy="82" r="22" fill="none" stroke="#1f2328" stroke-width="2.3" opacity=".7"/><path d="M90 106 C60 128 62 182 90 205 C118 182 120 128 90 106Z" fill="none" stroke="#1f2328" stroke-width="2.5" opacity=".7"/><path d="M71.3 134.5 L108.5 134.4" stroke="#1f2328" stroke-width="1.5" stroke-linecap="round" opacity="0.35" fill="none"/><path d="M76.1 163.1 L102.4 163.4" stroke="#1f2328" stroke-width="1.5" stroke-linecap="round" opacity="0.32" fill="none"/><path d="M122 68 C154 94 158 141 128 162 L113 143 C131 128 129 103 106 87Z" fill="none" stroke="#1f2328" stroke-width="7" opacity=".7"/><path d="M63.8 205.8 L149.8 92.2" stroke="#1f2328" stroke-width="4" stroke-linecap="round" opacity="0.65" fill="none"/><polygon points="72,106 90,123 83,143 61,143 54,123" fill="#b8c4d4" fill-opacity=".36" stroke="#222" stroke-width="2" opacity=".86"/><path d="M60.0 122.0 L82.0 121.9" stroke="#222" stroke-width="1.5" stroke-linecap="round" opacity="0.34" fill="none"/><path d="M72.8 107.0 L73.0 143.4" stroke="#222" stroke-width="1.2" stroke-linecap="round" opacity="0.28" fill="none"/><path d="M53.6 122.5 L83.3 143.3" stroke="#222" stroke-width="1" stroke-linecap="round" opacity="0.24" fill="none"/></g>
  <g opacity=".88">
    <circle cx="26" cy="27" r="16" fill="#111319" fill-opacity=".7" stroke="#fff" stroke-opacity=".4"/>
    <text x="26" y="32" text-anchor="middle" font-family="Arial, sans-serif" font-size="14" font-weight="900" fill="#fff">S</text>
    <rect x="127" y="15" width="35" height="20" rx="10" fill="#111319" fill-opacity=".52" stroke="#fff" stroke-opacity=".25"/>
    <text x="144.5" y="29" text-anchor="middle" font-family="Arial, sans-serif" font-size="9" font-weight="900" fill="#fff">UNIT</text>
  </g>
</svg>
