<svg xmlns="http://www.w3.org/2000/svg" width="256" height="356" viewBox="0 0 180 260" role="img" aria-label="Diamond Prism illustration">
  <defs>
    <radialGradient id="paper" cx="42%" cy="24%" r="78%"><stop offset="0" stop-color="#fffef8"/><stop offset=".56" stop-color="#eee9dc"/><stop offset="1" stop-color="#cfc7b8"/></radialGradient>
    <radialGradient id="glow" cx="50%" cy="40%" r="62%"><stop offset="0" stop-color="#ffffff" stop-opacity=".75"/><stop offset=".42" stop-color="#fff27b" stop-opacity=".25"/><stop offset="1" stop-color="#2b2708" stop-opacity="0"/></radialGradient>
    <filter id="rough"><feTurbulence baseFrequency="0.9" numOctaves="2" seed="171" type="fractalNoise"/><feDisplacementMap in="SourceGraphic" scale="0.55"/></filter>
  </defs>
  <rect width="180" height="260" rx="18" fill="#111319"/>
  <rect x="6" y="6" width="168" height="248" rx="15" fill="url(#paper)"/>
  <rect x="6" y="6" width="168" height="248" rx="15" fill="url(#glow)" opacity=".42"/>
  <path d="M8 214 C52 175 87 230 174 170" stroke="#fff27b" stroke-width="18" stroke-opacity=".12" fill="none"/>
  <path d="M-12 60 C48 34 118 30 196 10" stroke="#fff" stroke-width="24" stroke-opacity=".20" fill="none"/>
  <g filter="url(#rough)"><path d="M22.2 41.1 L170.2 29.0" stroke="#1f2328" stroke-width="0.9" stroke-linecap="round" opacity="0.09" fill="none"/><path d="M17.0 49.3 L165.0 36.3" stroke="#1f2328" stroke-width="0.9" stroke-linecap="round" opacity="0.09" fill="none"/><path d="M20.9 59.5 L168.9 45.4" stroke="#1f2328" stroke-width="0.9" stroke-linecap="round" opacity="0.09" fill="none"/><path d="M19.0 67.3 L167.2 52.3" stroke="#1f2328" stroke-width="0.9" stroke-linecap="round" opacity="0.09" fill="none"/><path d="M13.9 74.6 L161.9 58.5" stroke="#1f2328" stroke-width="0.9" stroke-linecap="round" opacity="0.09" fill="none"/><path d="M16.7 83.4 L163.6 66.3" stroke="#1f2328" stroke-width="0.9" stroke-linecap="round" opacity="0.09" fill="none"/><path d="M13.5 92.7 L161.5 74.6" stroke="#1f2328" stroke-width="0.9" stroke-linecap="round" opacity="0.09" fill="none"/><path d="M19.9 103.9 L167.8 84.6" stroke="#1f2328" stroke-width="0.9" stroke-linecap="round" opacity="0.09" fill="none"/><path d="M17.6 112.7 L165.7 92.7" stroke="#1f2328" stroke-width="0.9" stroke-linecap="round" opacity="0.09" fill="none"/><path d="M19.1 120.0 L168.8 98.9" stroke="#1f2328" stroke-width="0.9" stroke-linecap="round" opacity="0.09" fill="none"/><path d="M18.5 131.7 L166.6 109.7" stroke="#1f2328" stroke-width="0.9" stroke-linecap="round" opacity="0.09" fill="none"/><path d="M19.4 140.1 L167.3 117.0" stroke="#1f2328" stroke-width="0.9" stroke-linecap="round" opacity="0.09" fill="none"/><path d="M20.7 148.3 L168.9 124.3" stroke="#1f2328" stroke-width="0.9" stroke-linecap="round" opacity="0.09" fill="none"/><path d="M12.5 155.2 L160.5 130.0" stroke="#1f2328" stroke-width="0.9" stroke-linecap="round" opacity="0.09" fill="none"/><path d="M13.6 165.0 L161.7 138.0" stroke="#1f2328" stroke-width="0.9" stroke-linecap="round" opacity="0.09" fill="none"/><path d="M13.8 174.0 L161.7 147.2" stroke="#1f2328" stroke-width="0.9" stroke-linecap="round" opacity="0.09" fill="none"/><path d="M21.2 185.9 L169.5 157.8" stroke="#1f2328" stroke-width="0.9" stroke-linecap="round" opacity="0.09" fill="none"/><path d="M16.0 192.0 L164.0 163.1" stroke="#1f2328" stroke-width="0.9" stroke-linecap="round" opacity="0.09" fill="none"/><path d="M14.3 200.8 L162.2 170.9" stroke="#1f2328" stroke-width="0.9" stroke-linecap="round" opacity="0.09" fill="none"/><path d="M20.5 212.0 L167.6 181.0" stroke="#1f2328" stroke-width="0.9" stroke-linecap="round" opacity="0.09" fill="none"/><circle cx="90" cy="82" r="22" fill="none" stroke="#1f2328" stroke-width="2.3" opacity=".7"/><path d="M90 106 C60 128 62 182 90 205 C118 182 120 128 90 106Z" fill="none" stroke="#1f2328" stroke-width="2.5" opacity=".7"/><path d="M71.3 134.3 L108.3 134.3" stroke="#1f2328" stroke-width="1.5" stroke-linecap="round" opacity="0.35" fill="none"/><path d="M77.7 164.8 L103.8 164.8" stroke="#1f2328" stroke-width="1.5" stroke-linecap="round" opacity="0.32" fill="none"/><polygon points="91,82 118,107.5 107.5,137.5 74.5,137.5 64,107.5" fill="#fff27b" fill-opacity=".36" stroke="#222" stroke-width="2" opacity=".86"/><path d="M75.8 108.8 L108.9 108.8" stroke="#222" stroke-width="1.5" stroke-linecap="round" opacity="0.34" fill="none"/><path d="M89.8 80.8 L89.8 135.4" stroke="#222" stroke-width="1.2" stroke-linecap="round" opacity="0.28" fill="none"/><path d="M62.8 106.7 L106.7 136.6" stroke="#222" stroke-width="1" stroke-linecap="round" opacity="0.24" fill="none"/><path d="M89.9 110.8 L116.8 52.8" stroke="#fff27b" stroke-width="3" stroke-linecap="round" opacity="0.45" fill="none"/><path d="M89.8 110.9 L95.8 114.1" stroke="#fff27b" stroke-width="3" stroke-linecap="round" opacity="0.45" fill="none"/><path d="M92.0 113.0 L43.3 147.6" stroke="#fff27b" stroke-width="3" stroke-linecap="round" opacity="0.45" fill="none"/><path d="M91.7 112.7 L-16.7 136.5" stroke="#fff27b" stroke-width="3" stroke-linecap="round" opacity="0.45" fill="none"/><path d="M92.9 113.9 L-54.9 87.4" stroke="#fff27b" stroke-width="3" stroke-linecap="round" opacity="0.45" fill="none"/><path d="M90.7 111.7 L-56.6 20.3" stroke="#fff27b" stroke-width="3" stroke-linecap="round" opacity="0.45" fill="none"/><path d="M91.8 112.8 L-15.4 -28.0" stroke="#fff27b" stroke-width="3" stroke-linecap="round" opacity="0.45" fill="none"/><path d="M91.9 112.9 L45.7 -38.3" stroke="#fff27b" stroke-width="3" stroke-linecap="round" opacity="0.45" fill="none"/><path d="M89.8 110.9 L96.7 -7.1" stroke="#fff27b" stroke-width="3" stroke-linecap="round" opacity="0.45" fill="none"/></g>
  <g opacity=".88">
    <circle cx="26" cy="27" r="16" fill="#111319" fill-opacity=".7" stroke="#fff" stroke-opacity=".4"/>
    <text x="26" y="32" text-anchor="middle" font-family="Arial, sans-serif" font-size="14" font-weight="900" fill="#fff">L</text>
    <rect x="127" y="15" width="35" height="20" rx="10" fill="#111319" fill-opacity=".52" stroke="#fff" stroke-opacity=".25"/>
    <text x="144.5" y="29" text-anchor="middle" font-family="Arial, sans-serif" font-size="9" font-weight="900" fill="#fff">UNIT</text>
  </g>
</svg>
