<svg xmlns="http://www.w3.org/2000/svg" width="256" height="356" viewBox="0 0 180 260" role="img" aria-label="Prism Lens illustration">
  <defs>
    <radialGradient id="paper" cx="42%" cy="24%" r="78%"><stop offset="0" stop-color="#fffef8"/><stop offset=".56" stop-color="#eee9dc"/><stop offset="1" stop-color="#cfc7b8"/></radialGradient>
    <radialGradient id="glow" cx="50%" cy="40%" r="62%"><stop offset="0" stop-color="#ffffff" stop-opacity=".75"/><stop offset=".42" stop-color="#c9d0d8" stop-opacity=".25"/><stop offset="1" stop-color="#171a1f" stop-opacity="0"/></radialGradient>
    <filter id="rough"><feTurbulence baseFrequency="0.9" numOctaves="2" seed="30" type="fractalNoise"/><feDisplacementMap in="SourceGraphic" scale="0.55"/></filter>
  </defs>
  <rect width="180" height="260" rx="18" fill="#111319"/>
  <rect x="6" y="6" width="168" height="248" rx="15" fill="url(#paper)"/>
  <rect x="6" y="6" width="168" height="248" rx="15" fill="url(#glow)" opacity=".42"/>
  <path d="M8 214 C52 175 87 230 174 170" stroke="#777" stroke-width="18" stroke-opacity=".12" fill="none"/>
  <path d="M-12 60 C48 34 118 30 196 10" stroke="#fff" stroke-width="24" stroke-opacity=".20" fill="none"/>
  <g filter="url(#rough)"><path d="M21.5 40.9 L169.6 28.9" stroke="#1f2328" stroke-width="0.9" stroke-linecap="round" opacity="0.09" fill="none"/><path d="M15.8 47.6 L166.8 37.6" stroke="#1f2328" stroke-width="0.9" stroke-linecap="round" opacity="0.09" fill="none"/><path d="M21.1 57.2 L169.0 43.1" stroke="#1f2328" stroke-width="0.9" stroke-linecap="round" opacity="0.09" fill="none"/><path d="M17.8 67.9 L165.7 52.9" stroke="#1f2328" stroke-width="0.9" stroke-linecap="round" opacity="0.09" fill="none"/><path d="M17.2 76.6 L165.7 60.7" stroke="#1f2328" stroke-width="0.9" stroke-linecap="round" opacity="0.09" fill="none"/><path d="M19.7 85.4 L167.7 68.5" stroke="#1f2328" stroke-width="0.9" stroke-linecap="round" opacity="0.09" fill="none"/><path d="M15.9 95.8 L167.7 77.8" stroke="#1f2328" stroke-width="0.9" stroke-linecap="round" opacity="0.09" fill="none"/><path d="M16.4 101.1 L164.6 82.1" stroke="#1f2328" stroke-width="0.9" stroke-linecap="round" opacity="0.09" fill="none"/><path d="M15.0 110.2 L163.2 90.3" stroke="#1f2328" stroke-width="0.9" stroke-linecap="round" opacity="0.09" fill="none"/><path d="M22.3 121.5 L170.2 100.7" stroke="#1f2328" stroke-width="0.9" stroke-linecap="round" opacity="0.09" fill="none"/><path d="M13.6 129.0 L161.7 107.0" stroke="#1f2328" stroke-width="0.9" stroke-linecap="round" opacity="0.09" fill="none"/><path d="M17.9 140.1 L166.0 117.2" stroke="#1f2328" stroke-width="0.9" stroke-linecap="round" opacity="0.09" fill="none"/><path d="M16.8 148.3 L164.7 124.3" stroke="#1f2328" stroke-width="0.9" stroke-linecap="round" opacity="0.09" fill="none"/><path d="M17.4 158.6 L165.4 133.5" stroke="#1f2328" stroke-width="0.9" stroke-linecap="round" opacity="0.09" fill="none"/><path d="M20.0 166.9 L167.9 140.8" stroke="#1f2328" stroke-width="0.9" stroke-linecap="round" opacity="0.09" fill="none"/><path d="M17.3 173.6 L165.1 146.4" stroke="#1f2328" stroke-width="0.9" stroke-linecap="round" opacity="0.09" fill="none"/><path d="M20.1 184.1 L168.2 156.1" stroke="#1f2328" stroke-width="0.9" stroke-linecap="round" opacity="0.09" fill="none"/><path d="M16.4 191.9 L164.3 162.6" stroke="#1f2328" stroke-width="0.9" stroke-linecap="round" opacity="0.09" fill="none"/><path d="M13.7 200.6 L161.2 170.7" stroke="#1f2328" stroke-width="0.9" stroke-linecap="round" opacity="0.09" fill="none"/><path d="M14.8 210.3 L167.9 179.4" stroke="#1f2328" stroke-width="0.9" stroke-linecap="round" opacity="0.09" fill="none"/><circle cx="89" cy="125" r="55" fill="#c9d0d8" fill-opacity=".12" stroke="#1f2328" stroke-width="3"/><circle cx="89" cy="125" r="28" fill="none" stroke="#1f2328" stroke-width="2" opacity=".5"/><path d="M25.1 208.0 L145.0 60.0" stroke="#ffffff" stroke-width="3" stroke-linecap="round" opacity="0.38" fill="none"/><path d="M25.8 208.8 L145.8 78.8" stroke="#c9d0d8" stroke-width="3" stroke-linecap="round" opacity="0.38" fill="none"/><path d="M28.5 211.5 L148.5 99.6" stroke="#ffffff" stroke-width="3" stroke-linecap="round" opacity="0.38" fill="none"/><path d="M25.4 208.4 L145.3 114.3" stroke="#c9d0d8" stroke-width="3" stroke-linecap="round" opacity="0.38" fill="none"/><path d="M28.1 211.1 L148.9 135.9" stroke="#ffffff" stroke-width="3" stroke-linecap="round" opacity="0.38" fill="none"/><path d="M26.9 209.8 L146.9 151.9" stroke="#c9d0d8" stroke-width="3" stroke-linecap="round" opacity="0.38" fill="none"/><polygon points="90,104 108,121 101,141 79,141 72,121" fill="#c9d0d8" fill-opacity=".36" stroke="#222" stroke-width="2" opacity=".86"/><path d="M80.3 122.3 L102.3 122.2" stroke="#222" stroke-width="1.5" stroke-linecap="round" opacity="0.34" fill="none"/><path d="M88.6 102.5 L88.5 138.9" stroke="#222" stroke-width="1.2" stroke-linecap="round" opacity="0.28" fill="none"/><path d="M71.9 120.9 L101.0 140.9" stroke="#222" stroke-width="1" stroke-linecap="round" opacity="0.24" fill="none"/></g>
  <g opacity=".88">
    <circle cx="26" cy="27" r="16" fill="#111319" fill-opacity=".7" stroke="#fff" stroke-opacity=".4"/>
    <text x="26" y="32" text-anchor="middle" font-family="Arial, sans-serif" font-size="14" font-weight="900" fill="#fff">+</text>
    <rect x="127" y="15" width="35" height="20" rx="10" fill="#111319" fill-opacity=".52" stroke="#fff" stroke-opacity=".25"/>
    <text x="144.5" y="29" text-anchor="middle" font-family="Arial, sans-serif" font-size="9" font-weight="900" fill="#fff">SUP</text>
  </g>
</svg>
