<svg xmlns="http://www.w3.org/2000/svg" width="256" height="356" viewBox="0 0 180 260" role="img" aria-label="Hematite Golem illustration">
  <defs>
    <radialGradient id="paper" cx="42%" cy="24%" r="78%"><stop offset="0" stop-color="#fffef8"/><stop offset=".56" stop-color="#eee9dc"/><stop offset="1" stop-color="#cfc7b8"/></radialGradient>
    <radialGradient id="glow" cx="50%" cy="40%" r="62%"><stop offset="0" stop-color="#f1f5f8" stop-opacity=".75"/><stop offset=".42" stop-color="#b8c4d4" stop-opacity=".25"/><stop offset="1" stop-color="#15191f" stop-opacity="0"/></radialGradient>
    <filter id="rough"><feTurbulence baseFrequency="0.9" numOctaves="2" seed="735" type="fractalNoise"/><feDisplacementMap in="SourceGraphic" scale="0.55"/></filter>
  </defs>
  <rect width="180" height="260" rx="18" fill="#111319"/>
  <rect x="6" y="6" width="168" height="248" rx="15" fill="url(#paper)"/>
  <rect x="6" y="6" width="168" height="248" rx="15" fill="url(#glow)" opacity=".42"/>
  <path d="M8 214 C52 175 87 230 174 170" stroke="#b8c4d4" stroke-width="18" stroke-opacity=".12" fill="none"/>
  <path d="M-12 60 C48 34 118 30 196 10" stroke="#fff" stroke-width="24" stroke-opacity=".20" fill="none"/>
  <g filter="url(#rough)"><path d="M19.7 39.8 L168.2 27.9" stroke="#1f2328" stroke-width="0.9" stroke-linecap="round" opacity="0.09" fill="none"/><path d="M16.3 50.8 L164.3 37.8" stroke="#1f2328" stroke-width="0.9" stroke-linecap="round" opacity="0.09" fill="none"/><path d="M17.8 57.7 L165.9 43.8" stroke="#1f2328" stroke-width="0.9" stroke-linecap="round" opacity="0.09" fill="none"/><path d="M19.7 65.5 L167.6 50.7" stroke="#1f2328" stroke-width="0.9" stroke-linecap="round" opacity="0.09" fill="none"/><path d="M18.0 75.8 L165.8 59.8" stroke="#1f2328" stroke-width="0.9" stroke-linecap="round" opacity="0.09" fill="none"/><path d="M15.4 84.0 L163.2 67.1" stroke="#1f2328" stroke-width="0.9" stroke-linecap="round" opacity="0.09" fill="none"/><path d="M13.3 93.3 L161.4 75.4" stroke="#1f2328" stroke-width="0.9" stroke-linecap="round" opacity="0.09" fill="none"/><path d="M14.7 102.7 L162.8 83.7" stroke="#1f2328" stroke-width="0.9" stroke-linecap="round" opacity="0.09" fill="none"/><path d="M19.2 113.8 L167.0 93.8" stroke="#1f2328" stroke-width="0.9" stroke-linecap="round" opacity="0.09" fill="none"/><path d="M21.1 121.1 L169.1 99.8" stroke="#1f2328" stroke-width="0.9" stroke-linecap="round" opacity="0.09" fill="none"/><path d="M15.3 131.4 L163.4 109.4" stroke="#1f2328" stroke-width="0.9" stroke-linecap="round" opacity="0.09" fill="none"/><path d="M19.9 137.5 L167.9 115.0" stroke="#1f2328" stroke-width="0.9" stroke-linecap="round" opacity="0.09" fill="none"/><path d="M20.7 147.7 L169.1 123.7" stroke="#1f2328" stroke-width="0.9" stroke-linecap="round" opacity="0.09" fill="none"/><path d="M22.1 158.4 L170.7 133.4" stroke="#1f2328" stroke-width="0.9" stroke-linecap="round" opacity="0.09" fill="none"/><path d="M13.5 165.2 L161.4 139.2" stroke="#1f2328" stroke-width="0.9" stroke-linecap="round" opacity="0.09" fill="none"/><path d="M20.1 174.8 L168.0 147.8" stroke="#1f2328" stroke-width="0.9" stroke-linecap="round" opacity="0.09" fill="none"/><path d="M19.6 183.6 L168.1 155.9" stroke="#1f2328" stroke-width="0.9" stroke-linecap="round" opacity="0.09" fill="none"/><path d="M16.2 191.4 L164.2 162.4" stroke="#1f2328" stroke-width="0.9" stroke-linecap="round" opacity="0.09" fill="none"/><path d="M19.9 202.0 L167.8 173.0" stroke="#1f2328" stroke-width="0.9" stroke-linecap="round" opacity="0.09" fill="none"/><path d="M13.4 209.8 L161.7 178.8" stroke="#1f2328" stroke-width="0.9" stroke-linecap="round" opacity="0.09" fill="none"/><rect x="61" y="71" width="60" height="48" rx="10" fill="#b8c4d4" fill-opacity=".18" stroke="#1f2328" stroke-width="3"/><rect x="42" y="122" width="98" height="86" rx="14" fill="none" stroke="#1f2328" stroke-width="3"/><rect x="28" y="133" width="28" height="54" rx="10" fill="#b8c4d4" fill-opacity=".18" stroke="#1f2328"/><rect x="126" y="133" width="28" height="54" rx="10" fill="#b8c4d4" fill-opacity=".18" stroke="#1f2328"/><polygon points="91,130 110.8,148.7 103.1,170.7 78.9,170.7 71.2,148.7" fill="#b8c4d4" fill-opacity=".36" stroke="#222" stroke-width="2" opacity=".86"/><path d="M77.8 147.7 L101.9 147.5" stroke="#222" stroke-width="1.5" stroke-linecap="round" opacity="0.34" fill="none"/><path d="M89.0 128.0 L89.0 171.9" stroke="#222" stroke-width="1.2" stroke-linecap="round" opacity="0.28" fill="none"/><path d="M72.8 150.2 L104.7 172.2" stroke="#222" stroke-width="1" stroke-linecap="round" opacity="0.24" fill="none"/></g>
  <g opacity=".88">
    <circle cx="26" cy="27" r="16" fill="#111319" fill-opacity=".7" stroke="#fff" stroke-opacity=".4"/>
    <text x="26" y="32" text-anchor="middle" font-family="Arial, sans-serif" font-size="14" font-weight="900" fill="#fff">S</text>
    <rect x="127" y="15" width="35" height="20" rx="10" fill="#111319" fill-opacity=".52" stroke="#fff" stroke-opacity=".25"/>
    <text x="144.5" y="29" text-anchor="middle" font-family="Arial, sans-serif" font-size="9" font-weight="900" fill="#fff">UNIT</text>
  </g>
</svg>
