<svg xmlns="http://www.w3.org/2000/svg" width="256" height="356" viewBox="0 0 256 356" role="img" aria-label="安全確認ヨシ illustration">
  <defs>
    <linearGradient id="bg" x1="0" y1="0" x2="1" y2="1">
      <stop offset="0" stop-color="#dce5ef"/>
      <stop offset=".52" stop-color="#10151d"/>
      <stop offset="1" stop-color="#07090d"/>
    </linearGradient>
    <radialGradient id="halo" cx=".50" cy=".34" r=".60">
      <stop offset="0" stop-color="#e5ff9c" stop-opacity=".78"/>
      <stop offset=".42" stop-color="#dce5ef" stop-opacity=".24"/>
      <stop offset="1" stop-color="#10151d" stop-opacity="0"/>
    </radialGradient>
    <linearGradient id="figure" x1="0" y1="0" x2="1" y2="1">
      <stop offset="0" stop-color="#e5ff9c"/>
      <stop offset=".62" stop-color="#dce5ef"/>
      <stop offset="1" stop-color="#10131a"/>
    </linearGradient>
    <radialGradient id="core" cx=".38" cy=".22" r=".7">
      <stop offset="0" stop-color="#ffffff"/>
      <stop offset=".32" stop-color="#e5ff9c"/>
      <stop offset="1" stop-color="#dce5ef"/>
    </radialGradient>
    <linearGradient id="paper" x1="0" y1="0" x2="1" y2="1">
      <stop offset="0" stop-color="#ffffff" stop-opacity=".92"/>
      <stop offset="1" stop-color="#e5ff9c" stop-opacity=".45"/>
    </linearGradient>
    <filter id="S109_glow" x="-30%" y="-30%" width="160%" height="160%">
      <feGaussianBlur stdDeviation="7" result="blur"/>
      <feMerge><feMergeNode in="blur"/><feMergeNode in="SourceGraphic"/></feMerge>
    </filter>
  </defs>
  <rect width="256" height="356" rx="26" fill="#080b12"/>
  <rect x="7" y="7" width="242" height="342" rx="22" fill="url(#bg)"/>
  <rect x="10" y="10" width="236" height="336" rx="19" fill="url(#halo)"/>
  <path d="M-20 92 C64 44 132 48 276 12" stroke="white" stroke-opacity=".10" stroke-width="42"/>
  <path d="M-18 286 C72 222 178 282 274 216" stroke="#e5ff9c" stroke-opacity=".16" stroke-width="38"/>
  <g transform="rotate(354 128 176)" opacity=".36">
    <ellipse cx="128" cy="176" rx="83" ry="118" fill="none" stroke="white" stroke-opacity=".15" stroke-width="2"/>
    <ellipse cx="128" cy="176" rx="54" ry="104" fill="none" stroke="#e5ff9c" stroke-opacity=".26" stroke-width="4"/>
  </g>
  <path d="M20 252 L236 84" stroke="white" stroke-opacity=".12" stroke-width="2"/>
  <path d="M47 306 L212 72" stroke="#e5ff9c" stroke-opacity=".18" stroke-width="7" transform="rotate(26 128 178)"/>
  <g opacity=".82"><circle cx="66" cy="216" r="14" fill="url(#core)" opacity=".46"/><circle cx="66" cy="216" r="14" fill="url(#core)" opacity=".46"/></g>
  <g filter="url(#S109_glow)"><rect x="72" y="90" width="112" height="152" rx="16" fill="url(#paper)" opacity=".84"/><path d="M94 132h68M94 164h68M94 196h48" stroke="#0b1320" stroke-opacity=".45" stroke-width="6" stroke-linecap="round"/><path d="M157 214l18 18 34-43" fill="none" stroke="url(#core)" stroke-width="10" stroke-linecap="round"/></g>
  <circle cx="63" cy="103" r="2.5" fill="white" opacity="0.35"/><circle cx="101" cy="79" r="1.7" fill="white" opacity="0.20"/><circle cx="209" cy="64" r="2.9" fill="white" opacity="0.21"/><circle cx="154" cy="69" r="3.3" fill="white" opacity="0.26"/><circle cx="127" cy="220" r="2.2" fill="white" opacity="0.42"/><circle cx="49" cy="159" r="1.7" fill="white" opacity="0.27"/><circle cx="67" cy="209" r="2.0" fill="white" opacity="0.47"/><circle cx="75" cy="79" r="2.0" fill="white" opacity="0.26"/><circle cx="143" cy="103" r="1.7" fill="white" opacity="0.21"/>
  <rect x="18" y="18" width="42" height="42" rx="14" fill="rgba(0,0,0,.38)" stroke="white" stroke-opacity=".22"/>
  <text x="39" y="46" text-anchor="middle" font-family="system-ui, sans-serif" font-size="22" font-weight="900" fill="white">1</text>
  <rect x="190" y="18" width="48" height="30" rx="15" fill="rgba(0,0,0,.34)" stroke="white" stroke-opacity=".22"/>
  <text x="214" y="38" text-anchor="middle" font-family="system-ui, sans-serif" font-size="14" font-weight="900" fill="white">R</text>
  <rect x="21" y="264" width="42" height="24" rx="12" fill="rgba(0,0,0,.32)" stroke="white" stroke-opacity=".14"/>
  <text x="42" y="281" text-anchor="middle" font-family="system-ui, sans-serif" font-size="15" font-weight="900" fill="white" opacity=".66">安</text>
  <rect x="18" y="292" width="220" height="44" rx="14" fill="rgba(0,0,0,.44)" stroke="white" stroke-opacity=".16"/>
  <text x="128" y="319" text-anchor="middle" font-family="system-ui, sans-serif" font-size="18" font-weight="900" fill="white">安全確認ヨシ</text>
</svg>