<svg xmlns="http://www.w3.org/2000/svg" width="256" height="356" viewBox="0 0 256 356" role="img" aria-label="強行突破 illustration">
  <defs>
    <linearGradient id="bg" x1="0" y1="0" x2="1" y2="1">
      <stop offset="0" stop-color="#ff9a5f"/>
      <stop offset=".52" stop-color="#25110a"/>
      <stop offset="1" stop-color="#07090d"/>
    </linearGradient>
    <radialGradient id="halo" cx=".50" cy=".34" r=".60">
      <stop offset="0" stop-color="#dba0ff" stop-opacity=".78"/>
      <stop offset=".42" stop-color="#ff9a5f" stop-opacity=".24"/>
      <stop offset="1" stop-color="#25110a" stop-opacity="0"/>
    </radialGradient>
    <linearGradient id="figure" x1="0" y1="0" x2="1" y2="1">
      <stop offset="0" stop-color="#dba0ff"/>
      <stop offset=".62" stop-color="#ff9a5f"/>
      <stop offset="1" stop-color="#10131a"/>
    </linearGradient>
    <radialGradient id="core" cx=".38" cy=".22" r=".7">
      <stop offset="0" stop-color="#ffffff"/>
      <stop offset=".32" stop-color="#dba0ff"/>
      <stop offset="1" stop-color="#ff9a5f"/>
    </radialGradient>
    <linearGradient id="paper" x1="0" y1="0" x2="1" y2="1">
      <stop offset="0" stop-color="#ffffff" stop-opacity=".92"/>
      <stop offset="1" stop-color="#dba0ff" stop-opacity=".45"/>
    </linearGradient>
    <filter id="S168_glow" x="-30%" y="-30%" width="160%" height="160%">
      <feGaussianBlur stdDeviation="7" result="blur"/>
      <feMerge><feMergeNode in="blur"/><feMergeNode in="SourceGraphic"/></feMerge>
    </filter>
  </defs>
  <rect width="256" height="356" rx="26" fill="#080b12"/>
  <rect x="7" y="7" width="242" height="342" rx="22" fill="url(#bg)"/>
  <rect x="10" y="10" width="236" height="336" rx="19" fill="url(#halo)"/>
  <path d="M-20 92 C64 44 132 48 276 12" stroke="white" stroke-opacity=".10" stroke-width="42"/>
  <path d="M-18 286 C72 222 178 282 274 216" stroke="#dba0ff" stroke-opacity=".16" stroke-width="38"/>
  <g transform="rotate(163 128 176)" opacity=".36">
    <ellipse cx="128" cy="176" rx="83" ry="118" fill="none" stroke="white" stroke-opacity=".15" stroke-width="2"/>
    <ellipse cx="128" cy="176" rx="54" ry="104" fill="none" stroke="#dba0ff" stroke-opacity=".26" stroke-width="4"/>
  </g>
  <path d="M20 252 L236 84" stroke="white" stroke-opacity=".12" stroke-width="2"/>
  <path d="M66 306 L214 72" stroke="#dba0ff" stroke-opacity=".18" stroke-width="7" transform="rotate(-25 128 178)"/>
  <g opacity=".82"><path d="M202 118l17 13-17 13-17-13Z" fill="url(#core)" opacity=".46"/><path d="M202 118l17 13-17 13-17-13Z" fill="url(#core)" opacity=".46"/></g>
  <g filter="url(#S168_glow)"><rect x="70" y="90" width="116" height="150" rx="18" fill="url(#paper)" opacity=".82"/><path d="M92 136h72M92 170h84M92 204h52" stroke="#0b1320" stroke-opacity=".39" stroke-width="6" stroke-linecap="round"/><circle cx="168" cy="107" r="17" fill="url(#core)" opacity=".78"/></g>
  <circle cx="174" cy="68" r="3.6" fill="white" opacity="0.44"/><circle cx="143" cy="238" r="3.0" fill="white" opacity="0.39"/><circle cx="176" cy="114" r="1.7" fill="white" opacity="0.48"/><circle cx="125" cy="176" r="2.7" fill="white" opacity="0.41"/><circle cx="230" cy="83" r="3.3" fill="white" opacity="0.38"/><circle cx="162" cy="29" r="3.3" fill="white" opacity="0.40"/><circle cx="164" cy="239" r="3.4" fill="white" opacity="0.29"/><circle cx="175" cy="166" r="1.9" fill="white" opacity="0.16"/><circle cx="35" cy="119" r="3.3" fill="white" opacity="0.16"/>
  <rect x="18" y="18" width="42" height="42" rx="14" fill="rgba(0,0,0,.38)" stroke="white" stroke-opacity=".22"/>
  <text x="39" y="46" text-anchor="middle" font-family="system-ui, sans-serif" font-size="22" font-weight="900" fill="white">4</text>
  <rect x="190" y="18" width="48" height="30" rx="15" fill="rgba(0,0,0,.34)" stroke="white" stroke-opacity=".22"/>
  <text x="214" y="38" text-anchor="middle" font-family="system-ui, sans-serif" font-size="14" font-weight="900" fill="white">R</text>
  <rect x="21" y="264" width="42" height="24" rx="12" fill="rgba(0,0,0,.32)" stroke="white" stroke-opacity=".14"/>
  <text x="42" y="281" text-anchor="middle" font-family="system-ui, sans-serif" font-size="15" font-weight="900" fill="white" opacity=".66">強</text>
  <rect x="18" y="292" width="220" height="44" rx="14" fill="rgba(0,0,0,.44)" stroke="white" stroke-opacity=".16"/>
  <text x="128" y="319" text-anchor="middle" font-family="system-ui, sans-serif" font-size="18" font-weight="900" fill="white">強行突破</text>
</svg>