<svg xmlns="http://www.w3.org/2000/svg" width="256" height="356" viewBox="0 0 256 356" role="img" aria-label="先導師 illustration">
  <defs>
    <linearGradient id="bg" x1="0" y1="0" x2="1" y2="1">
      <stop offset="0" stop-color="#ff9a5f"/>
      <stop offset=".52" stop-color="#25110a"/>
      <stop offset="1" stop-color="#07090d"/>
    </linearGradient>
    <radialGradient id="halo" cx=".50" cy=".34" r=".60">
      <stop offset="0" stop-color="#d9e8ff" stop-opacity=".78"/>
      <stop offset=".42" stop-color="#ff9a5f" stop-opacity=".24"/>
      <stop offset="1" stop-color="#25110a" stop-opacity="0"/>
    </radialGradient>
    <linearGradient id="figure" x1="0" y1="0" x2="1" y2="1">
      <stop offset="0" stop-color="#d9e8ff"/>
      <stop offset=".62" stop-color="#ff9a5f"/>
      <stop offset="1" stop-color="#10131a"/>
    </linearGradient>
    <radialGradient id="core" cx=".38" cy=".22" r=".7">
      <stop offset="0" stop-color="#ffffff"/>
      <stop offset=".32" stop-color="#d9e8ff"/>
      <stop offset="1" stop-color="#ff9a5f"/>
    </radialGradient>
    <linearGradient id="paper" x1="0" y1="0" x2="1" y2="1">
      <stop offset="0" stop-color="#ffffff" stop-opacity=".92"/>
      <stop offset="1" stop-color="#d9e8ff" stop-opacity=".45"/>
    </linearGradient>
    <filter id="sendousi_glow" x="-30%" y="-30%" width="160%" height="160%">
      <feGaussianBlur stdDeviation="7" result="blur"/>
      <feMerge><feMergeNode in="blur"/><feMergeNode in="SourceGraphic"/></feMerge>
    </filter>
  </defs>
  <rect width="256" height="356" rx="26" fill="#080b12"/>
  <rect x="7" y="7" width="242" height="342" rx="22" fill="url(#bg)"/>
  <rect x="10" y="10" width="236" height="336" rx="19" fill="url(#halo)"/>
  <path d="M-20 92 C64 44 132 48 276 12" stroke="white" stroke-opacity=".10" stroke-width="42"/>
  <path d="M-18 286 C72 222 178 282 274 216" stroke="#d9e8ff" stroke-opacity=".16" stroke-width="38"/>
  <g transform="rotate(6 128 176)" opacity=".36">
    <ellipse cx="128" cy="176" rx="83" ry="118" fill="none" stroke="white" stroke-opacity=".15" stroke-width="2"/>
    <ellipse cx="128" cy="176" rx="54" ry="104" fill="none" stroke="#d9e8ff" stroke-opacity=".26" stroke-width="4"/>
  </g>
  <path d="M20 252 L236 84" stroke="white" stroke-opacity=".12" stroke-width="2"/>
  <path d="M44 306 L210 72" stroke="#d9e8ff" stroke-opacity=".18" stroke-width="7" transform="rotate(-2 128 178)"/>
  <g opacity=".82"><circle cx="61" cy="216" r="14" fill="url(#core)" opacity=".46"/><path d="M202 118l17 13-17 13-17-13Z" fill="url(#core)" opacity=".46"/></g>
  <g filter="url(#sendousi_glow)">
    <circle cx="128" cy="116" r="27" fill="url(#core)" opacity=".95"/>
    <path d="M92 148q36-30 72 0l24 102q-54 34-120 0Z" fill="url(#figure)" opacity=".92"/>
    <path d="M128 154v86M100 188h56" stroke="url(#core)" stroke-width="11" stroke-linecap="round"/><path d="M82 248q46 25 92 0" fill="none" stroke="white" stroke-opacity=".24" stroke-width="8" stroke-linecap="round"/>
  <circle cx="128" cy="83" r="20" fill="none" stroke="url(#paper)" stroke-width="8" opacity=".58"/></g>
  <circle cx="227" cy="36" r="2.6" fill="white" opacity="0.18"/><circle cx="162" cy="85" r="2.5" fill="white" opacity="0.36"/><circle cx="96" cy="254" r="3.0" fill="white" opacity="0.46"/><circle cx="195" cy="53" r="1.6" fill="white" opacity="0.23"/><circle cx="235" cy="206" r="2.2" fill="white" opacity="0.17"/><circle cx="219" cy="272" r="3.5" fill="white" opacity="0.44"/><circle cx="207" cy="234" r="3.1" fill="white" opacity="0.48"/><circle cx="26" cy="64" r="3.2" fill="white" opacity="0.33"/><circle cx="136" cy="270" r="3.4" fill="white" opacity="0.15"/>
  <rect x="18" y="18" width="42" height="42" rx="14" fill="rgba(0,0,0,.38)" stroke="white" stroke-opacity=".22"/>
  <text x="39" y="46" text-anchor="middle" font-family="system-ui, sans-serif" font-size="22" font-weight="900" fill="white">2</text>
  <rect x="190" y="18" width="48" height="30" rx="15" fill="rgba(0,0,0,.34)" stroke="white" stroke-opacity=".22"/>
  <text x="214" y="38" text-anchor="middle" font-family="system-ui, sans-serif" font-size="14" font-weight="900" fill="white">R</text>
  <rect x="21" y="264" width="42" height="24" rx="12" fill="rgba(0,0,0,.32)" stroke="white" stroke-opacity=".14"/>
  <text x="42" y="281" text-anchor="middle" font-family="system-ui, sans-serif" font-size="15" font-weight="900" fill="white" opacity=".66">先</text>
  <rect x="18" y="292" width="220" height="44" rx="14" fill="rgba(0,0,0,.44)" stroke="white" stroke-opacity=".16"/>
  <text x="128" y="319" text-anchor="middle" font-family="system-ui, sans-serif" font-size="18" font-weight="900" fill="white">先導師</text>
</svg>